**ABCDEFGHIJKLMNOPQRSTUVWXYZabcdefghijklmnopqrstuvwxyz**************************
**PARASOLID !"#$%&'()*+,-./:;<=>?@[\]^_`{|}~0123456789**************************
**PART1;
MC=unknown;
MC_MODEL=unknown;
MC_ID=unknown;
OS=unknown;
OS_RELEASE=unknown;
FRU=Parasolid 34.0.176;
APPL=Onshape;
SITE=unknown;
USER=unknown;
FORMAT=text;
GUISE=transmit;
KEY=BTGapi::writeModels_.xmt;
FILE=BTGapi::writeModels_.xmt;
DATE=2021-12-24T14:24:29 (UTC);
**PART2;
SCH=SCH_3400176_34001;
USFLD_SIZE=0;
**PART3;
**END_OF_HEADER*****************************************************************
T51 : TRANSMIT FILE created by modeller version 340017623 SCH_3400176_34001_1300
6231 0 12 36 CCCI7 lattice222 0 CCCI4 mesh1006 0 I8 polyline1008 0 CCCCCCCDI5 ow
ner1040 0 CCCI16 boundary_lattice222 0 CCCI13 boundary_mesh1006 0 I17 boundary_p
olyline1008 0 CCCA16 index_map_offset0 0 1 dA9 index_map82 0 A17 node_id_index_m
ap82 0 A20 schema_embedding_map82 0 A5 child12 0 A14 lowest_node_id0 0 1 dA16 me
sh_offset_data206 0 Z1 877 2 3 0 0 0 0 0 0 0 1e3 1e-8 0 4 5 1 0 1 1 6 0 7 8 9 0
 0 10 11 12 0 0 0 0 0 0 0 81 255 1 2 856 13 1 14 0 0 0 15 70 11 CI9 list_type0 0
 1 uI10 notransmit0 0 1 lCCCDCCDI12 finger_index0 0 1 dI12 finger_block1012 0 CZ
3 0 4 T1 0 0 5 20 1 16 16 13 255 6 37 0 1 0 17 0 0 18 0 52 255 7 671 0 19 20 0 0
 +0 0 -.01905 0 0 1 .00248759233875 .707106781186548 .707106781186548 1 0 0 31 2
55 8 655 0 11 21 0 0 -0 0 -.01836259233875 0 0 -1 -1 0 0 .003175 29 255 9 449 0
 12 22 0 -.0023876 -10836470110144e-31 .003302 19 9 CCCCCCI5 frame230 0 CA5 owne
r12 0 Z10 11 0 1 18 0 23 0 V0 16 255 11 652 24 ?25 0 26 8 0 0 1 18 255 12 445 27
 28 0 29 9 ?1 81 1 27 583 30 12 0 0 31 32 33 17 255 28 0 34 35 36 12 37 38 0 39
 -18 29 98 40 41 12 42 22 ?1 81 1 40 303 30 29 0 0 43 44 45 17 41 0 46 47 48 29
 49 50 0 51 -18 42 203 43 52 29 53 54 ?1 29 22 100 0 29 55 9 .0023876 -.00137848
150271715 .00635 29 55 287 0 56 57 22 .0023876 .00137848150271715 .00635 18 56 2
25 58 59 60 61 55 ?1 29 57 289 0 61 62 55 -433680868994202e-33 -.002756963005434
3 .00635 18 61 217 63 48 56 64 57 ?1 29 62 290 0 64 65 57 -.0023876 -.0013784815
0271715 .00635 18 64 213 66 67 61 68 62 ?1 29 65 291 0 68 69 62 -.0023876 .00137
848150271715 .00635 18 68 209 70 71 64 72 65 ?1 29 69 292 0 72 54 65 -1951563910
47391e-32 .0027569630054343 .00635 18 72 205 73 74 68 75 69 ?1 29 54 293 0 42 76
 69 .0023876 .00137848150271715 .003302 29 76 294 0 53 77 54 .0023876 -.00137848
150271715 .003302 18 53 223 44 78 42 79 76 ?1 29 77 295 0 79 80 76 -433680868994
202e-33 -.0027569630054343 .003302 18 79 219 81 82 53 83 77 ?1 29 80 296 0 83 84
 77 -.0023876 -.00137848150271715 .003302 18 83 215 85 86 79 87 80 ?1 29 84 297
 0 87 88 80 -.0023876 .00137848150271715 .003302 18 87 211 89 90 83 60 84 ?1 29
 88 298 0 60 91 84 -195156391047391e-32 .0027569630054343 .003302 18 60 207 92 9
3 87 56 88 ?1 29 91 560 0 75 94 88 -.0011938 -.002067722254075725 .003302 18 75
 541 31 35 72 95 91 ?1 29 94 561 0 95 96 91 .0011938 -.002067722254075725 .00330
2 18 95 542 97 98 75 99 94 ?1 29 96 562 0 99 100 94 .0023876 0 .003302 18 99 543
 101 102 95 103 96 ?1 29 100 563 0 103 104 96 .0011938 .002067722254075725 .0033
02 18 103 544 105 106 99 107 100 ?1 29 104 564 0 107 108 100 -.0011938 .00206772
2254075725 .003302 18 107 545 32 36 103 109 104 ?1 29 108 566 0 109 0 104 -86736
1737988404e-33 0 .001923518497282845 18 109 539 110 111 107 0 108 ?1 81 1 110 57
8 30 109 0 0 112 113 114 17 111 0 115 111 111 109 0 0 0 0 ?15 255 115 550 0 111
 116 0 14 255 116 546 117 ?118 119 34 6 120 -0 0 118 119 23 81 1 117 875 121 116
 113 0 122 123 124 14 118 629 123 ?19 116 125 6 20 -0 0 19 116 23 14 119 397 122
 ?116 126 127 6 128 +0 0 116 126 23 15 34 549 0 28 116 115 52 120 557 0 116 0 12
8 0 +0 0 .001923518497282845 0 0 1 867361737988404e-33 .866025403784438 .5 1 0 0
 13 23 12 0 0 0 0 0 0 10 17 14 17 487 129 ?130 0 131 6 132 +130 133 130 0 23 81
 1 129 857 121 17 134 0 0 135 136 14 130 482 135 ?137 17 138 6 132 +137 17 137 1
7 23 15 131 486 0 139 17 0 50 255 132 268 0 133 140 141 0 +0 0 .003302 0 0 1 1 0
 0 14 133 251 142 ?126 143 144 6 132 +17 145 126 143 23 81 1 142 872 121 133 146
 0 147 148 149 14 126 392 148 ?119 133 150 6 140 -0 0 119 133 23 14 143 247 147
 ?133 151 152 6 141 +0 0 133 151 23 15 144 254 0 153 133 0 14 145 467 154 ?155 1
56 157 6 132 +133 156 155 156 23 81 1 154 861 121 145 158 0 159 160 161 14 155 1
 160 ?162 145 163 6 164 +0 0 162 145 23 14 156 472 159 ?145 137 165 6 132 +145 1
37 145 137 23 15 157 466 0 166 145 0 17 166 0 157 167 168 95 82 169 0 170 -17 16
7 0 157 168 166 75 98 171 0 153 +17 168 0 157 166 167 79 172 173 0 0 -17 82 0 46
 48 170 79 166 169 0 174 +16 169 456 175 ?82 176 173 177 176 176 1 17 170 0 46 8
2 47 95 178 176 0 0 +15 46 246 0 41 151 0 17 47 0 46 170 41 53 51 179 0 178 -17
 178 0 165 180 181 53 170 176 0 0 -16 176 191 182 ?170 183 169 177 169 169 1 81
 1 182 588 30 176 0 0 184 175 185 16 183 461 184 ?78 186 176 187 186 186 1 30 25
5 177 282 0 176 188 187 0 +.0011938 -.002067722254075725 .003302 -.8660254037844
39 -.5 0 30 188 283 0 173 189 177 0 +-.0011938 -.002067722254075725 .003302 -.86
6025403784439 .5 0 30 187 281 0 186 177 190 0 +.0023876 0 .003302 0 -1 0 16 186
 188 191 ?192 193 183 187 183 183 1 30 190 280 0 194 187 195 0 +.0011938 .002067
722254075725 .00635 .866025403784439 -.5 0 16 194 137 196 ?197 198 38 190 0 0 1
 30 195 279 0 198 190 199 0 +-.0011938 .002067722254075725 .00635 .8660254037844
38 .5 0 16 198 145 200 ?201 202 194 195 0 0 1 30 199 278 0 202 195 203 0 +-.0023
876 -1251287787031394e-33 .00635 -453864554789077e-30 1 0 16 202 153 204 ?205 20
6 198 199 0 0 1 30 203 277 0 206 199 207 0 +-.0011938 -.002067722254075725 .0063
5 -.866025403784439 .5 0 16 206 161 208 ?209 50 202 203 0 0 1 30 207 276 0 50 20
3 210 0 +.0011938 -.002067722254075725 .00635 -.866025403784439 -.5 0 16 50 169
 211 ?49 212 206 207 0 0 1 30 210 275 0 212 207 213 0 +.0023876 0 .00635 0 -1 0
 16 212 177 214 ?215 216 50 210 0 0 1 30 213 274 0 193 210 217 0 +.0023876 .0013
7848150271715 .003302 0 0 1 16 193 182 218 ?59 179 186 213 0 0 1 30 217 273 0 17
9 213 219 0 +.0023876 -.00137848150271715 .003302 0 0 1 16 179 174 220 ?51 221 1
93 217 0 0 1 30 219 272 0 221 217 222 0 +-433680868994202e-33 -.0027569630054343
 .003302 0 0 1 16 221 166 223 ?48 224 179 219 0 0 1 30 222 271 0 224 219 225 0 +
-.0023876 -.00137848150271715 .003302 0 0 1 16 224 158 226 ?67 227 221 222 0 0 1
 30 225 270 0 227 222 228 0 +-.0023876 .00137848150271715 .003302 0 0 1 16 227 1
50 229 ?71 230 224 225 0 0 1 30 228 269 0 230 225 231 0 +-195156391047391e-32 .0
027569630054343 .003302 0 0 1 16 230 142 232 ?74 233 227 228 0 0 1 31 231 31 0 2
33 228 234 0 +0 2916190190469635e-34 0 0 0 1 1 0 0 .0047625 16 233 26 235 ?236 2
37 230 231 0 0 1 31 234 52 0 237 231 238 0 +0 2916190190469635e-34 .00635 0 0 1
 1 0 0 .0041275 16 237 49 239 ?240 241 233 234 0 0 1 31 238 58 0 241 234 242 0 -
0 2916190190469635e-34 .005715 0 0 1 1 0 0 .0047625 16 241 55 243 ?244 245 237 2
38 0 0 1 31 242 614 0 246 238 247 0 -0 0 -1778e-7 0 0 1 1 0 0 .003175 16 246 611
 248 ?249 250 251 242 0 0 1 31 247 620 0 250 242 21 0 +0 0 0 0 0 1 1 0 0 .003352
8 16 250 617 252 ?253 26 246 247 0 0 1 31 21 649 0 26 247 8 0 +0 0 -.01905 0 0 -
1 -1 0 0 .00248759233875 16 26 646 254 ?255 11 250 21 0 0 1 81 1 254 675 30 26 0
 0 256 24 257 17 255 0 127 255 255 0 258 26 0 0 +15 127 647 0 255 119 0 17 258 0
 259 258 258 0 255 26 0 0 -15 259 666 0 258 19 0 14 19 664 260 ?0 118 261 6 7 +0
 0 0 118 23 81 1 260 877 121 19 262 0 123 0 263 15 261 665 0 264 19 259 17 264 0
 261 264 264 0 25 11 0 0 -17 25 0 150 25 25 0 264 11 0 0 +15 150 653 0 25 126 26
5 15 265 612 0 249 126 0 17 249 0 265 249 249 0 266 246 0 0 +17 266 0 267 266 26
6 0 249 246 0 0 -15 267 631 0 266 118 0 80 7 CCCCCDI12 legal_owners0 16 1 lCZ1 1
21 0 268 8001 0 0 0 0 3 5 0 0 0 FFFFTFTFFFFFFFFF2 81 1 262 677 30 19 0 260 24 26
9 270 81 1 123 876 121 118 271 0 117 260 272 83 255 3 263 .603921568627451 .6470
58823529412 .686274509803922 81 1 271 642 30 118 0 123 252 256 273 83 3 272 .603
921568627451 .647058823529412 .686274509803922 80 1 30 274 275 9000 0 0 0 0 3 6
 0 0 0 FFTFTFTTFFFFFFFF1 81 1 252 641 30 250 0 0 248 271 276 81 1 256 644 30 277
 0 278 271 254 279 82 255 3 273 20 0 2 14 277 21 278 ?280 162 281 6 282 -0 0 280
 162 23 81 1 278 864 121 277 256 0 283 284 285 82 3 279 20 2 2 81 1 283 863 121
 162 286 0 160 278 287 81 1 284 865 121 280 288 0 278 289 290 83 3 285 .60392156
8627451 .647058823529412 .686274509803922 14 280 67 284 ?291 277 292 6 293 +0 0
 291 277 23 81 1 288 80 30 280 0 284 239 286 294 81 1 289 866 121 291 295 0 284
 296 297 83 3 290 .603921568627451 .647058823529412 .686274509803922 14 291 227
 289 ?298 280 299 6 300 +0 0 298 280 23 81 1 295 337 30 291 0 289 301 302 303 81
 1 296 867 121 298 301 0 289 304 305 83 3 297 .603921568627451 .647058823529412
 .686274509803922 14 298 231 296 ?306 291 307 6 308 +0 0 306 291 23 81 1 301 336
 30 298 0 296 309 295 310 81 1 304 868 121 306 309 0 296 311 312 83 3 305 .60392
1568627451 .647058823529412 .686274509803922 14 306 235 304 ?313 298 314 6 315 +
0 0 313 298 23 81 1 309 335 30 306 0 304 316 301 317 81 1 311 869 121 313 316 0
 304 318 319 83 3 312 .603921568627451 .647058823529412 .686274509803922 14 313
 239 311 ?151 306 320 6 321 +0 0 151 306 23 81 1 316 334 30 313 0 311 322 309 32
3 81 1 318 870 121 151 322 0 311 147 324 83 3 319 .603921568627451 .647058823529
412 .686274509803922 14 151 243 318 ?143 313 46 6 325 +0 0 143 313 23 81 1 322 3
33 30 151 0 318 326 316 327 81 1 147 871 121 143 326 0 318 142 328 83 3 324 .603
921568627451 .647058823529412 .686274509803922 81 1 326 331 30 143 0 147 196 322
 329 83 3 328 .603921568627451 .647058823529412 .686274509803922 81 1 196 329 30
 194 0 0 200 326 330 82 3 329 11 0 2 81 1 200 327 30 198 0 0 204 196 331 82 3 33
0 11 16 1 81 1 204 325 30 202 0 0 208 200 332 82 3 331 11 14 1 81 1 208 323 30 2
06 0 0 211 204 333 82 3 332 11 12 1 81 1 211 321 30 50 0 0 214 208 334 82 3 333
 11 10 1 81 1 214 319 30 212 0 0 232 211 335 82 3 334 11 8 1 81 1 232 318 30 230
 0 0 229 214 336 82 3 335 11 6 1 81 1 229 317 30 227 0 0 226 232 337 82 3 336 11
 5 1 81 1 226 316 30 224 0 0 223 229 338 82 3 337 11 4 1 81 1 223 315 30 221 0 0
 220 226 339 82 3 338 11 3 1 81 1 220 314 30 179 0 0 218 223 340 82 3 339 11 2 1
 81 1 218 313 30 193 0 0 92 220 341 82 3 340 11 1 1 81 1 92 312 30 60 0 0 73 218
 342 82 3 341 11 0 1 81 1 73 311 30 72 0 0 89 92 343 82 3 342 11 11 0 81 1 89 31
0 30 87 0 0 70 73 344 82 3 343 11 10 0 81 1 70 309 30 68 0 0 85 89 345 82 3 344
 11 9 0 81 1 85 308 30 83 0 0 66 70 346 82 3 345 11 8 0 81 1 66 307 30 64 0 0 81
 85 347 82 3 346 11 7 0 81 1 81 306 30 79 0 0 63 66 348 82 3 347 11 6 0 81 1 63
 305 30 61 0 0 44 81 349 82 3 348 11 5 0 81 1 44 304 30 53 0 0 40 63 350 82 3 34
9 11 4 0 82 3 350 11 3 0 82 3 327 11 2 2 50 325 265 0 151 141 321 0 +.0011938 -.
002067722254075725 .003302 -.5 .866025403784439 0 -.866025403784439 -.5 0 50 141
 266 0 143 132 325 0 +.0023876 0 .003302 -1 0 0 0 0 1 50 321 264 0 313 325 315 0
 +-.0011938 -.002067722254075725 .003302 .5 .866025403784439 0 -.866025403784439
 .5 0 50 315 263 0 306 321 308 0 +-.0023876 -1251287787031394e-33 .003302 1 4538
64554789077e-30 0 -453864554789077e-30 1 0 50 308 262 0 298 315 300 0 +-.0011938
 .002067722254075725 .003302 .5 -.866025403784438 0 .866025403784438 .5 0 50 300
 261 0 291 308 164 0 +.0011938 .002067722254075725 .003302 -.5 -.866025403784439
 0 .866025403784439 -.5 0 50 164 2 0 155 300 282 0 +0 0 .00635 0 0 1 1 0 0 50 28
2 30 0 277 164 351 0 +0 0 0 0 0 1 1 0 0 51 255 351 36 0 162 282 293 0 -0 2916190
190469635e-34 .00635 0 0 -1 .0047625 -1 0 0 14 162 33 283 ?277 155 352 6 351 -0
 0 277 155 23 52 293 74 0 280 351 20 0 +0 2916190190469635e-34 .00635 0 0 -1 .00
41275 .707106781186548 .707106781186548 -1 0 0 54 255 20 636 0 118 293 7 0 +0 0
 -1778e-7 0 0 1 .0033528 1778e-7 1 0 0 15 352 56 0 244 162 353 17 244 0 352 244
 244 0 354 241 0 0 +15 353 34 0 236 162 0 17 236 0 353 236 236 0 355 233 0 0 +17
 355 0 356 355 355 0 236 233 0 0 -15 356 25 0 355 277 0 17 354 0 292 354 354 0 2
44 241 0 0 -15 292 68 0 354 280 357 15 357 69 0 358 280 0 17 358 0 357 358 358 0
 240 237 0 0 -17 240 0 163 240 240 0 358 237 0 0 +15 163 50 0 240 155 359 15 359
 96 0 201 155 0 17 201 0 359 197 205 72 360 198 0 0 +17 197 0 359 215 201 56 361
 194 0 0 +17 205 0 359 201 209 68 362 202 0 0 +17 360 0 307 363 74 68 201 198 0
 205 -15 307 234 0 360 298 0 17 363 0 307 364 360 87 71 227 0 365 -17 74 0 307 3
60 93 72 366 230 0 361 +17 93 0 307 74 364 60 367 368 0 366 +17 366 0 299 369 36
1 60 74 230 0 370 -17 361 0 299 366 59 72 197 194 0 201 -15 299 230 0 361 291 0
 17 59 0 299 361 52 56 371 193 0 372 +17 52 0 299 59 369 42 373 216 0 371 +17 37
1 0 152 192 372 42 59 193 0 374 -17 372 0 152 371 51 56 215 212 0 197 -15 152 25
0 0 372 143 0 17 51 0 152 372 78 29 47 179 0 215 +17 215 0 359 49 197 29 372 212
 0 0 +17 49 0 359 209 215 61 41 50 0 0 +17 209 0 359 205 49 64 375 206 0 0 +17 3
75 0 320 174 67 61 209 206 0 49 -15 320 242 0 375 313 0 17 174 0 320 172 375 79
 48 221 0 168 -17 67 0 320 375 86 64 376 224 0 362 +17 86 0 320 67 172 83 153 37
7 0 376 +17 376 0 314 378 362 83 67 224 0 379 -17 362 0 314 376 71 64 205 202 0
 209 -15 314 238 0 362 306 0 17 71 0 314 362 90 68 363 227 0 360 +17 90 0 314 71
 378 87 139 380 0 363 +17 378 0 314 90 376 12 379 381 0 0 +17 139 0 131 37 365 1
2 90 380 0 378 -16 380 446 382 ?90 381 383 189 381 381 1 81 1 382 593 30 380 0 0
 384 385 386 16 381 197 384 ?378 377 380 189 380 380 1 16 383 200 385 ?364 380 3
68 387 368 368 1 30 189 284 0 381 387 188 0 +-.0023876 -1251287787031394e-33 .00
3302 -453864554789077e-30 1 0 30 387 285 0 383 388 189 0 +-.0011938 .00206772225
4075725 .003302 .866025403784438 .5 0 30 388 286 0 389 390 387 0 +.0011938 .0020
67722254075725 .003302 .866025403784439 -.5 0 16 389 185 391 ?369 368 216 388 21
6 216 1 31 390 559 0 38 0 388 0 +0 0 .003302 0 0 -1 -1 0 0 .0023876 16 38 508 39
2 ?37 194 0 390 251 245 1 81 1 392 608 30 38 0 0 393 394 395 17 37 0 131 365 139
 107 28 38 0 367 +16 251 485 394 ?396 246 397 390 397 38 1 16 245 465 393 ?39 17
1 241 390 38 171 1 81 1 393 607 30 245 0 0 398 392 399 17 39 0 144 379 153 12 35
 245 0 139 +16 171 470 398 ?167 400 245 390 245 400 1 81 1 398 606 30 171 0 0 40
1 393 402 16 400 475 403 ?181 397 171 390 171 397 1 81 1 403 604 30 400 0 0 404
 401 405 17 181 0 165 178 180 95 102 400 0 166 +16 397 480 401 ?406 251 400 390
 400 251 1 81 1 401 605 30 397 0 0 403 398 407 17 406 0 408 374 373 99 106 397 0
 180 +15 408 476 0 373 137 0 17 374 0 408 373 406 42 192 186 0 0 -17 373 0 408 4
06 374 103 52 216 0 369 -17 106 0 34 36 102 103 406 397 0 396 -17 180 0 165 181
 178 99 78 183 0 192 -15 165 471 0 180 156 0 17 78 0 152 51 192 53 180 183 0 47
 +17 192 0 152 78 371 99 374 186 0 0 +17 36 0 34 28 106 107 396 251 0 37 -17 102
 0 34 106 98 99 181 400 0 406 -17 396 0 138 370 367 103 36 251 0 373 +15 138 481
 0 367 130 0 17 370 0 138 367 396 60 369 389 0 0 -17 367 0 138 396 370 107 93 36
8 0 364 -16 368 441 409 ?93 383 389 387 383 383 1 17 364 0 307 93 363 107 365 38
3 0 0 +17 365 0 131 139 37 87 364 383 0 0 -81 1 409 595 30 368 0 0 385 410 411 8
1 1 385 594 30 383 0 0 382 409 412 81 1 410 596 30 216 0 0 409 391 413 82 3 411
 19 9 1 16 216 436 410 ?52 389 212 388 389 389 1 81 1 391 597 30 389 0 0 410 414
 415 82 3 413 19 10 1 81 1 414 598 30 156 0 159 391 416 417 82 3 415 19 11 1 81
 1 159 860 121 156 414 0 418 154 419 81 1 416 599 30 137 0 418 414 158 420 82 3
 417 19 1 2 14 137 477 418 ?156 130 408 6 132 +156 130 156 130 23 81 1 418 859 1
21 137 416 0 135 159 421 81 1 158 600 30 145 0 154 416 146 422 82 3 420 19 2 2 8
1 1 146 601 30 133 0 142 158 134 423 82 3 422 19 3 2 81 1 134 602 30 17 0 129 14
6 404 424 82 3 423 19 4 2 81 1 404 603 30 130 0 135 134 403 425 82 3 424 19 5 2
 81 1 135 858 121 130 404 0 129 418 426 82 3 425 19 6 2 83 3 426 .60392156862745
1 .647058823529412 .686274509803922 83 3 421 .603921568627451 .647058823529412 .
686274509803922 83 3 419 .603921568627451 .647058823529412 .686274509803922 82 3
 412 19 8 1 17 369 0 299 52 366 103 370 389 0 0 +17 98 0 34 102 35 95 167 171 0
 181 -17 35 0 34 98 28 75 39 245 0 167 -82 3 407 19 13 1 82 3 405 19 12 1 82 3 4
02 19 14 1 17 379 0 144 153 39 83 378 381 0 0 -17 153 0 144 39 379 75 86 377 0 1
72 -16 377 451 427 ?86 173 381 188 173 173 1 17 172 0 320 86 174 75 168 173 0 0
 +16 173 194 428 ?172 169 377 188 377 377 1 81 1 428 590 30 173 0 0 175 427 429
 81 1 175 589 30 169 0 0 182 428 430 81 1 427 591 30 377 0 0 428 384 431 82 3 42
9 19 4 1 81 1 384 592 30 381 0 0 427 382 432 82 3 431 19 5 1 82 3 432 19 6 1 82
 3 430 19 3 1 82 3 399 19 15 1 81 1 394 609 30 251 0 0 392 248 433 81 1 248 640
 30 246 0 0 394 252 434 82 3 433 19 17 1 82 3 434 20 0 1 82 3 395 19 16 1 82 3 3
86 19 7 1 17 48 0 46 41 82 61 174 221 0 375 +82 3 323 11 3 2 82 3 317 11 4 2 82
 3 310 11 5 2 81 1 302 338 30 155 0 160 295 112 435 82 3 303 11 6 2 81 1 160 862
 121 155 302 0 154 283 436 81 1 112 414 30 1 0 437 302 110 438 82 3 435 11 7 2 8
1 1 437 854 439 1 112 14 0 0 440 82 3 438 6 0 3 80 1 439 441 442 8038 0 0 0 0 0
 0 0 0 0 TTTTTTTTTTTTTFTF10 81 1 14 855 441 1 437 2 0 0 443 98 255 35 440 83 111
 99 107 101 116 32 104 101 97 100 32 99 97 112 32 115 99 114 101 119 32 49 47 52
 45 50 48 32 120 32 48 46 55 53 80 1 441 444 445 8017 0 0 0 0 0 0 0 0 0 TTTTTTTT
TTTTTFTF3 84 255 35 443 Socket head cap screw 1/4-20 x 0.7579 255 13 445 SDL/TYS
A_NAME79 14 442 SDL/TYSA_UNAME83 3 436 .603921568627451 .647058823529412 .686274
509803922 81 1 239 79 30 237 0 0 243 288 446 81 1 286 81 30 162 0 283 288 58 447
 82 3 294 7 0 2 81 1 58 301 30 56 0 0 286 43 448 82 3 447 7 1 2 81 1 43 302 30 4
2 0 0 58 40 449 82 3 448 11 0 0 82 3 449 11 1 0 81 1 243 78 30 241 0 0 235 239 4
50 82 3 446 7 1 1 81 1 235 42 30 233 0 0 0 243 451 82 3 450 7 0 1 82 3 451 6 0 1
 83 3 287 .603921568627451 .647058823529412 .686274509803922 15 281 618 0 253 27
7 356 17 253 0 281 253 253 0 452 250 0 0 +17 452 0 125 452 452 0 253 250 0 0 -15
 125 630 0 452 118 267 82 3 276 20 1 1 79 9 275 BTI/DetId81 1 24 676 30 11 0 0 2
54 262 453 81 1 269 678 30 119 0 122 262 454 455 82 3 270 21 0 2 81 1 122 874 12
1 119 269 0 148 117 456 81 1 454 679 30 126 0 148 269 0 457 82 3 455 21 1 2 81 1
 148 873 121 126 454 0 142 122 458 82 3 457 21 2 2 83 3 458 .603921568627451 .64
7058823529412 .686274509803922 83 3 456 .603921568627451 .647058823529412 .68627
4509803922 82 3 453 21 1 1 79 15 268 SDL/TYSA_COLOUR82 3 257 21 0 1 81 1 191 586
 30 186 0 0 105 184 459 81 1 105 585 30 103 0 0 32 191 460 81 1 184 587 30 183 0
 0 191 182 461 82 3 459 19 0 1 82 3 461 19 1 1 81 1 32 584 30 107 0 0 27 105 462
 82 3 460 19 6 0 82 3 462 19 5 0 82 3 185 19 2 1 83 3 161 .603921568627451 .6470
58823529412 .686274509803922 51 140 407 0 126 128 132 0 -0 0 -.01905 0 0 1 .0031
75 1 0 0 50 128 409 0 119 120 140 0 +0 0 -.01905 0 0 -1 1 0 0 83 3 149 .60392156
8627451 .647058823529412 .686274509803922 83 3 136 .603921568627451 .64705882352
9412 .686274509803922 81 1 113 579 30 116 0 117 110 101 463 83 3 124 .6039215686
27451 .647058823529412 .686274509803922 81 1 101 580 30 99 0 0 113 97 464 82 3 4
63 19 0 2 81 1 97 581 30 95 0 0 101 31 465 82 3 464 19 1 0 81 1 31 582 30 75 0 0
 97 27 466 82 3 465 19 2 0 82 3 466 19 3 0 82 3 114 19 0 0 82 3 45 11 2 0 82 3 3
3 19 4 0 19 18 38 0 1 0 10 6 0 S0 74 4 CI16 index_map_offset0 0 1 dCCZ20 16 5 0
 0 454 437 14 2 260 0 0 0 0 0 0 0 0 0 0 0 0 0 0 0 80 1 13 121 467 8040 0 0 0 0 3
 5 0 0 0 TTTFFFFFFFFFFFFF2 83 3 15 .603921568627451 .647058823529412 .6862745098
03922 79 17 467 SDL/TYSA_COLOUR_21 0 
