{"accessors":[{"bufferView":0,"byteOffset":0,"componentType":5126,"count":179,"max":[0.8929687500000022,8.383899922878067,8.387648783127363],"min":[0.8929687500000009,-8.388898527331689,-8.387648783127363],"type":"VEC3"},{"bufferView":0,"byteOffset":2148,"componentType":5126,"count":179,"max":[0.8929687500000011,7.70419558199508,7.70419558199508],"min":[-0.9525000000000006,-7.70419558199508,-7.70419558199508],"type":"VEC3"},{"bufferView":0,"byteOffset":4296,"componentType":5126,"count":184,"max":[0.8929687500000022,8.383899922878067,8.387648783127363],"min":[1.630117656549119e-15,-8.388898527331689,-8.387648783127363],"type":"VEC3"},{"bufferView":0,"byteOffset":6504,"componentType":5126,"count":113,"max":[12.2355687715414,3.0,3.0],"min":[4.7625,-3.0,-3.0],"type":"VEC3"},{"bufferView":0,"byteOffset":7860,"componentType":5126,"count":119,"max":[12.2355687715414,3.898787809803183,3.9],"min":[12.2355687715414,-3.898787809803183,-3.8951519927537978],"type":"VEC3"},{"bufferView":0,"byteOffset":9288,"componentType":5126,"count":255,"max":[14.165624999999999,3.898787809803183,3.9],"min":[12.2355687715414,-3.898787809803183,-3.8951519927537978],"type":"VEC3"},{"bufferView":0,"byteOffset":12348,"componentType":5126,"count":115,"max":[16.281200000725087,2.9987765784845679,3.0],"min":[14.165624999999999,-2.998776578484568,-2.9996342659331458],"type":"VEC3"},{"bufferView":0,"byteOffset":13728,"componentType":5126,"count":1015,"max":[17.300002276021606,2.9967360538981584,2.9999593788726437],"min":[16.281199999999946,-2.9985469369869155,-2.9996342659331458],"type":"VEC3"},{"bufferView":0,"byteOffset":25908,"componentType":5126,"count":111,"max":[17.300002276021606,1.9811999999999999,1.9812000000729804],"min":[4.7625,-1.9810778864500263,-1.9804681336945276],"type":"VEC3"},{"bufferView":0,"byteOffset":27240,"componentType":5126,"count":555,"max":[4.7625,5.5499,5.548682815217045],"min":[-1.187872370707569e-16,-5.545031794765654,-5.548682815217045],"type":"VEC3"},{"bufferView":0,"byteOffset":33900,"componentType":5126,"count":151,"max":[4.7625,8.73125,8.73125],"min":[4.7625,-8.73125,-8.73125],"type":"VEC3"},{"bufferView":0,"byteOffset":35712,"componentType":5126,"count":45,"max":[4.7625,7.56148430679288,-4.365625],"min":[3.9826562045285898,0.0,-8.73125000000001],"type":"VEC3"},{"bufferView":0,"byteOffset":36252,"componentType":5126,"count":45,"max":[4.7625,10.0819790757238,4.365625],"min":[3.9826562045285898,7.56148430679288,-4.365625],"type":"VEC3"},{"bufferView":0,"byteOffset":36792,"componentType":5126,"count":45,"max":[4.7625,7.56148430679288,8.731250000000012],"min":[3.9826562045285898,0.0,4.365625],"type":"VEC3"},{"bufferView":0,"byteOffset":37332,"componentType":5126,"count":45,"max":[4.7625,0.0,8.731250000003826],"min":[3.9826562045285898,-7.56148430679288,4.365625],"type":"VEC3"},{"bufferView":0,"byteOffset":37872,"componentType":5126,"count":45,"max":[4.7625,-7.56148430679288,4.365625],"min":[3.9826562045285898,-10.0819790757238,-4.365625],"type":"VEC3"},{"bufferView":0,"byteOffset":38412,"componentType":5126,"count":45,"max":[4.7625,0.0,-4.365625],"min":[3.9826562045285898,-7.56148430679288,-8.731250000003645],"type":"VEC3"},{"bufferView":0,"byteOffset":38952,"componentType":5126,"count":54,"max":[4.7625,5.04098953786192,-8.731249999985643],"min":[0.44648437500000107,-5.04098953786192,-8.731250000003945],"type":"VEC3"},{"bufferView":0,"byteOffset":39600,"componentType":5126,"count":54,"max":[4.7625,10.0819790757238,8.69825773020957e-16],"min":[0.44648437500000107,5.04098953786192,-8.73125],"type":"VEC3"},{"bufferView":0,"byteOffset":40248,"componentType":5126,"count":54,"max":[4.7625,10.0819790757238,8.73125],"min":[0.44648437500000107,5.04098953786192,3.05362525044604e-17],"type":"VEC3"},{"bufferView":0,"byteOffset":40896,"componentType":5126,"count":54,"max":[4.7625,5.04098953786192,8.731250000003826],"min":[0.44648437500000107,-5.04098953786192,8.731249999985199],"type":"VEC3"},{"bufferView":0,"byteOffset":41544,"componentType":5126,"count":54,"max":[4.7625,-5.04098953786192,8.73125],"min":[0.44648437500000107,-10.0819790757238,1.92409253707675e-15],"type":"VEC3"},{"bufferView":0,"byteOffset":42192,"componentType":5126,"count":54,"max":[4.7625,-5.04098953786192,1.97976167194033e-15],"min":[0.44648437500000107,-10.0819790757238,-8.73125],"type":"VEC3"},{"bufferView":0,"byteOffset":42840,"componentType":5126,"count":45,"max":[1.22632817047141,-2.63416153999824e-16,-4.365625],"min":[0.44648437500000096,-7.56148430679288,-8.731250000003945],"type":"VEC3"},{"bufferView":0,"byteOffset":43380,"componentType":5126,"count":45,"max":[1.22632817047141,7.56148430679288,-4.365625],"min":[0.44648437500000107,-2.63416153999824e-16,-8.731250000000032],"type":"VEC3"},{"bufferView":0,"byteOffset":43920,"componentType":5126,"count":45,"max":[1.22632817047141,10.0819790757238,4.365625],"min":[0.44648437500000107,7.56148430679288,-4.365625],"type":"VEC3"},{"bufferView":0,"byteOffset":44460,"componentType":5126,"count":45,"max":[1.22632817047141,7.56148430679288,8.731250000000032],"min":[0.44648437500000107,-2.63416153999824e-16,4.365625],"type":"VEC3"},{"bufferView":0,"byteOffset":45000,"componentType":5126,"count":45,"max":[1.22632817047141,-2.63416153999824e-16,8.731250000003693],"min":[0.44648437500000107,-7.56148430679288,4.365625],"type":"VEC3"},{"bufferView":0,"byteOffset":45540,"componentType":5126,"count":45,"max":[1.22632817047141,-7.56148430679288,4.365625],"min":[0.44648437500000096,-10.0819790757238,-4.365625],"type":"VEC3"},{"bufferView":0,"byteOffset":46080,"componentType":5126,"count":189,"max":[0.4464843750000021,8.73125,8.73125],"min":[0.44648437500000096,-8.73125,-8.73125],"type":"VEC3"},{"bufferView":0,"byteOffset":48348,"componentType":5126,"count":188,"max":[0.4464843750000021,8.62632579358713,8.630018860593495],"min":[1.6270956418823093e-15,-8.63125,-8.630018860593495],"type":"VEC3"},{"bufferView":0,"byteOffset":50604,"componentType":5126,"count":184,"max":[1.8422899074157457e-15,8.62632579358713,8.630018860593495],"min":[1.6270956418823093e-15,-8.63125,-8.630018860593495],"type":"VEC3"},{"bufferView":0,"byteOffset":52812,"componentType":5126,"count":279,"max":[-0.9524999999999999,8.369069485710798,8.476893892862885],"min":[-1.82080441207839,-8.263077972489258,-8.054807360736869],"type":"VEC3"},{"bufferView":0,"byteOffset":56160,"componentType":5126,"count":162,"max":[-12.7,7.568634612472942,7.564933588929407],"min":[-12.7,-7.568634612472942,-7.56986842105263],"type":"VEC3"},{"bufferView":0,"byteOffset":58104,"componentType":5126,"count":152,"max":[1.1889152513810889e-16,5.5499,5.548682815217045],"min":[-12.7,-5.545031794765654,-5.548682815217045],"type":"VEC3"},{"bufferView":0,"byteOffset":59928,"componentType":5126,"count":398,"max":[-11.6973684270547,8.04189254012872,8.252951765618338],"min":[-12.7,-8.467216878327639,-8.478948694862908],"type":"VEC3"},{"bufferView":0,"byteOffset":64704,"componentType":5126,"count":2037,"max":[-1.02485870199781,8.500073446175599,8.500093041483382],"min":[-12.4933141366663,-8.500107718078088,-8.500117594230784],"type":"VEC3"},{"bufferView":0,"byteOffset":89148,"componentType":5126,"count":19249,"max":[-0.9525,7.776554029731729,7.776541744004392],"min":[-12.565710216700593,-7.776554271023465,-7.776554187278864],"type":"VEC3"},{"bufferView":0,"byteOffset":320136,"componentType":5126,"count":2035,"max":[-1.02485870150041,8.500121739252407,8.500115934808387],"min":[-12.4933141375571,-8.500120412933486,-8.500123165114447],"type":"VEC3"},{"bufferView":0,"byteOffset":344556,"componentType":5126,"count":24791,"max":[-1.74842769836865,8.572499939901269,8.572499931101902],"min":[-11.769745269162199,-8.572499990648718,-8.572499645411268],"type":"VEC3"},{"bufferView":1,"byteOffset":0,"componentType":5126,"count":179,"type":"VEC3"},{"bufferView":1,"byteOffset":2148,"componentType":5126,"count":179,"type":"VEC3"},{"bufferView":1,"byteOffset":4296,"componentType":5126,"count":184,"type":"VEC3"},{"bufferView":1,"byteOffset":6504,"componentType":5126,"count":113,"type":"VEC3"},{"bufferView":1,"byteOffset":7860,"componentType":5126,"count":119,"type":"VEC3"},{"bufferView":1,"byteOffset":9288,"componentType":5126,"count":255,"type":"VEC3"},{"bufferView":1,"byteOffset":12348,"componentType":5126,"count":115,"type":"VEC3"},{"bufferView":1,"byteOffset":13728,"componentType":5126,"count":1015,"type":"VEC3"},{"bufferView":1,"byteOffset":25908,"componentType":5126,"count":111,"type":"VEC3"},{"bufferView":1,"byteOffset":27240,"componentType":5126,"count":555,"type":"VEC3"},{"bufferView":1,"byteOffset":33900,"componentType":5126,"count":151,"type":"VEC3"},{"bufferView":1,"byteOffset":35712,"componentType":5126,"count":45,"type":"VEC3"},{"bufferView":1,"byteOffset":36252,"componentType":5126,"count":45,"type":"VEC3"},{"bufferView":1,"byteOffset":36792,"componentType":5126,"count":45,"type":"VEC3"},{"bufferView":1,"byteOffset":37332,"componentType":5126,"count":45,"type":"VEC3"},{"bufferView":1,"byteOffset":37872,"componentType":5126,"count":45,"type":"VEC3"},{"bufferView":1,"byteOffset":38412,"componentType":5126,"count":45,"type":"VEC3"},{"bufferView":1,"byteOffset":38952,"componentType":5126,"count":54,"type":"VEC3"},{"bufferView":1,"byteOffset":39600,"componentType":5126,"count":54,"type":"VEC3"},{"bufferView":1,"byteOffset":40248,"componentType":5126,"count":54,"type":"VEC3"},{"bufferView":1,"byteOffset":40896,"componentType":5126,"count":54,"type":"VEC3"},{"bufferView":1,"byteOffset":41544,"componentType":5126,"count":54,"type":"VEC3"},{"bufferView":1,"byteOffset":42192,"componentType":5126,"count":54,"type":"VEC3"},{"bufferView":1,"byteOffset":42840,"componentType":5126,"count":45,"type":"VEC3"},{"bufferView":1,"byteOffset":43380,"componentType":5126,"count":45,"type":"VEC3"},{"bufferView":1,"byteOffset":43920,"componentType":5126,"count":45,"type":"VEC3"},{"bufferView":1,"byteOffset":44460,"componentType":5126,"count":45,"type":"VEC3"},{"bufferView":1,"byteOffset":45000,"componentType":5126,"count":45,"type":"VEC3"},{"bufferView":1,"byteOffset":45540,"componentType":5126,"count":45,"type":"VEC3"},{"bufferView":1,"byteOffset":46080,"componentType":5126,"count":189,"type":"VEC3"},{"bufferView":1,"byteOffset":48348,"componentType":5126,"count":188,"type":"VEC3"},{"bufferView":1,"byteOffset":50604,"componentType":5126,"count":184,"type":"VEC3"},{"bufferView":1,"byteOffset":52812,"componentType":5126,"count":279,"type":"VEC3"},{"bufferView":1,"byteOffset":56160,"componentType":5126,"count":162,"type":"VEC3"},{"bufferView":1,"byteOffset":58104,"componentType":5126,"count":152,"type":"VEC3"},{"bufferView":1,"byteOffset":59928,"componentType":5126,"count":398,"type":"VEC3"},{"bufferView":1,"byteOffset":64704,"componentType":5126,"count":2037,"type":"VEC3"},{"bufferView":1,"byteOffset":89148,"componentType":5126,"count":19249,"type":"VEC3"},{"bufferView":1,"byteOffset":320136,"componentType":5126,"count":2035,"type":"VEC3"},{"bufferView":1,"byteOffset":344556,"componentType":5126,"count":24791,"type":"VEC3"},{"bufferView":2,"byteOffset":0,"componentType":5126,"count":179,"type":"VEC2"},{"bufferView":2,"byteOffset":1432,"componentType":5126,"count":179,"type":"VEC2"},{"bufferView":2,"byteOffset":2864,"componentType":5126,"count":184,"type":"VEC2"},{"bufferView":2,"byteOffset":4336,"componentType":5126,"count":113,"type":"VEC2"},{"bufferView":2,"byteOffset":5240,"componentType":5126,"count":119,"type":"VEC2"},{"bufferView":2,"byteOffset":6192,"componentType":5126,"count":255,"type":"VEC2"},{"bufferView":2,"byteOffset":8232,"componentType":5126,"count":115,"type":"VEC2"},{"bufferView":2,"byteOffset":9152,"componentType":5126,"count":1015,"type":"VEC2"},{"bufferView":2,"byteOffset":17272,"componentType":5126,"count":111,"type":"VEC2"},{"bufferView":2,"byteOffset":18160,"componentType":5126,"count":555,"type":"VEC2"},{"bufferView":2,"byteOffset":22600,"componentType":5126,"count":151,"type":"VEC2"},{"bufferView":2,"byteOffset":23808,"componentType":5126,"count":45,"type":"VEC2"},{"bufferView":2,"byteOffset":24168,"componentType":5126,"count":45,"type":"VEC2"},{"bufferView":2,"byteOffset":24528,"componentType":5126,"count":45,"type":"VEC2"},{"bufferView":2,"byteOffset":24888,"componentType":5126,"count":45,"type":"VEC2"},{"bufferView":2,"byteOffset":25248,"componentType":5126,"count":45,"type":"VEC2"},{"bufferView":2,"byteOffset":25608,"componentType":5126,"count":45,"type":"VEC2"},{"bufferView":2,"byteOffset":25968,"componentType":5126,"count":54,"type":"VEC2"},{"bufferView":2,"byteOffset":26400,"componentType":5126,"count":54,"type":"VEC2"},{"bufferView":2,"byteOffset":26832,"componentType":5126,"count":54,"type":"VEC2"},{"bufferView":2,"byteOffset":27264,"componentType":5126,"count":54,"type":"VEC2"},{"bufferView":2,"byteOffset":27696,"componentType":5126,"count":54,"type":"VEC2"},{"bufferView":2,"byteOffset":28128,"componentType":5126,"count":54,"type":"VEC2"},{"bufferView":2,"byteOffset":28560,"componentType":5126,"count":45,"type":"VEC2"},{"bufferView":2,"byteOffset":28920,"componentType":5126,"count":45,"type":"VEC2"},{"bufferView":2,"byteOffset":29280,"componentType":5126,"count":45,"type":"VEC2"},{"bufferView":2,"byteOffset":29640,"componentType":5126,"count":45,"type":"VEC2"},{"bufferView":2,"byteOffset":30000,"componentType":5126,"count":45,"type":"VEC2"},{"bufferView":2,"byteOffset":30360,"componentType":5126,"count":45,"type":"VEC2"},{"bufferView":2,"byteOffset":30720,"componentType":5126,"count":189,"type":"VEC2"},{"bufferView":2,"byteOffset":32232,"componentType":5126,"count":188,"type":"VEC2"},{"bufferView":2,"byteOffset":33736,"componentType":5126,"count":184,"type":"VEC2"},{"bufferView":2,"byteOffset":35208,"componentType":5126,"count":279,"type":"VEC2"},{"bufferView":2,"byteOffset":37440,"componentType":5126,"count":162,"type":"VEC2"},{"bufferView":2,"byteOffset":38736,"componentType":5126,"count":152,"type":"VEC2"},{"bufferView":2,"byteOffset":39952,"componentType":5126,"count":398,"type":"VEC2"},{"bufferView":2,"byteOffset":43136,"componentType":5126,"count":2037,"type":"VEC2"},{"bufferView":2,"byteOffset":59432,"componentType":5126,"count":19249,"type":"VEC2"},{"bufferView":2,"byteOffset":213424,"componentType":5126,"count":2035,"type":"VEC2"},{"bufferView":2,"byteOffset":229704,"componentType":5126,"count":24791,"type":"VEC2"},{"bufferView":3,"byteOffset":0,"componentType":5123,"count":537,"type":"SCALAR"},{"bufferView":3,"byteOffset":1076,"componentType":5123,"count":531,"type":"SCALAR"},{"bufferView":3,"byteOffset":2140,"componentType":5123,"count":546,"type":"SCALAR"},{"bufferView":3,"byteOffset":3232,"componentType":5123,"count":333,"type":"SCALAR"},{"bufferView":3,"byteOffset":3900,"componentType":5123,"count":357,"type":"SCALAR"},{"bufferView":3,"byteOffset":4616,"componentType":5123,"count":1146,"type":"SCALAR"},{"bufferView":3,"byteOffset":6908,"componentType":5123,"count":339,"type":"SCALAR"},{"bufferView":3,"byteOffset":7588,"componentType":5123,"count":5649,"type":"SCALAR"},{"bufferView":3,"byteOffset":18888,"componentType":5123,"count":327,"type":"SCALAR"},{"bufferView":3,"byteOffset":19544,"componentType":5123,"count":2907,"type":"SCALAR"},{"bufferView":3,"byteOffset":25360,"componentType":5123,"count":453,"type":"SCALAR"},{"bufferView":3,"byteOffset":26268,"componentType":5123,"count":138,"type":"SCALAR"},{"bufferView":3,"byteOffset":26544,"componentType":5123,"count":138,"type":"SCALAR"},{"bufferView":3,"byteOffset":26820,"componentType":5123,"count":138,"type":"SCALAR"},{"bufferView":3,"byteOffset":27096,"componentType":5123,"count":138,"type":"SCALAR"},{"bufferView":3,"byteOffset":27372,"componentType":5123,"count":138,"type":"SCALAR"},{"bufferView":3,"byteOffset":27648,"componentType":5123,"count":138,"type":"SCALAR"},{"bufferView":3,"byteOffset":27924,"componentType":5123,"count":156,"type":"SCALAR"},{"bufferView":3,"byteOffset":28236,"componentType":5123,"count":156,"type":"SCALAR"},{"bufferView":3,"byteOffset":28548,"componentType":5123,"count":156,"type":"SCALAR"},{"bufferView":3,"byteOffset":28860,"componentType":5123,"count":156,"type":"SCALAR"},{"bufferView":3,"byteOffset":29172,"componentType":5123,"count":156,"type":"SCALAR"},{"bufferView":3,"byteOffset":29484,"componentType":5123,"count":156,"type":"SCALAR"},{"bufferView":3,"byteOffset":29796,"componentType":5123,"count":138,"type":"SCALAR"},{"bufferView":3,"byteOffset":30072,"componentType":5123,"count":138,"type":"SCALAR"},{"bufferView":3,"byteOffset":30348,"componentType":5123,"count":138,"type":"SCALAR"},{"bufferView":3,"byteOffset":30624,"componentType":5123,"count":138,"type":"SCALAR"},{"bufferView":3,"byteOffset":30900,"componentType":5123,"count":138,"type":"SCALAR"},{"bufferView":3,"byteOffset":31176,"componentType":5123,"count":138,"type":"SCALAR"},{"bufferView":3,"byteOffset":31452,"componentType":5123,"count":567,"type":"SCALAR"},{"bufferView":3,"byteOffset":32588,"componentType":5123,"count":558,"type":"SCALAR"},{"bufferView":3,"byteOffset":33704,"componentType":5123,"count":552,"type":"SCALAR"},{"bufferView":3,"byteOffset":34808,"componentType":5123,"count":900,"type":"SCALAR"},{"bufferView":3,"byteOffset":36608,"componentType":5123,"count":486,"type":"SCALAR"},{"bufferView":3,"byteOffset":37580,"componentType":5123,"count":450,"type":"SCALAR"},{"bufferView":3,"byteOffset":38480,"componentType":5123,"count":1284,"type":"SCALAR"},{"bufferView":3,"byteOffset":41048,"componentType":5123,"count":7293,"type":"SCALAR"},{"bufferView":3,"byteOffset":55636,"componentType":5123,"count":110544,"type":"SCALAR"},{"bufferView":3,"byteOffset":276724,"componentType":5123,"count":7287,"type":"SCALAR"},{"bufferView":3,"byteOffset":291300,"componentType":5123,"count":122664,"type":"SCALAR"}],"asset":{"generator":"Open CASCADE Technology [www.opencascade.com]","version":"2.0"},"bufferViews":[{"buffer":0,"byteLength":642048,"byteOffset":0,"byteStride":12,"target":34962},{"buffer":0,"byteLength":642048,"byteOffset":642048,"byteStride":12,"target":34962},{"buffer":0,"byteLength":428032,"byteOffset":1284096,"byteStride":8,"target":34962},{"buffer":0,"byteLength":536628,"byteOffset":1712128,"target":34963}],"buffers":[{"byteLength":2248756,"uri":"ssbarb_rd.bin"}],"meshes":[{"name":"SOLID","primitives":[{"attributes":{"NORMAL":40,"POSITION":0,"TEXCOORD_0":80},"indices":120,"mode":4},{"attributes":{"NORMAL":41,"POSITION":1,"TEXCOORD_0":81},"indices":121,"mode":4},{"attributes":{"NORMAL":42,"POSITION":2,"TEXCOORD_0":82},"indices":122,"mode":4},{"attributes":{"NORMAL":43,"POSITION":3,"TEXCOORD_0":83},"indices":123,"mode":4},{"attributes":{"NORMAL":44,"POSITION":4,"TEXCOORD_0":84},"indices":124,"mode":4},{"attributes":{"NORMAL":45,"POSITION":5,"TEXCOORD_0":85},"indices":125,"mode":4},{"attributes":{"NORMAL":46,"POSITION":6,"TEXCOORD_0":86},"indices":126,"mode":4},{"attributes":{"NORMAL":47,"POSITION":7,"TEXCOORD_0":87},"indices":127,"mode":4},{"attributes":{"NORMAL":48,"POSITION":8,"TEXCOORD_0":88},"indices":128,"mode":4},{"attributes":{"NORMAL":49,"POSITION":9,"TEXCOORD_0":89},"indices":129,"mode":4},{"attributes":{"NORMAL":50,"POSITION":10,"TEXCOORD_0":90},"indices":130,"mode":4},{"attributes":{"NORMAL":51,"POSITION":11,"TEXCOORD_0":91},"indices":131,"mode":4},{"attributes":{"NORMAL":52,"POSITION":12,"TEXCOORD_0":92},"indices":132,"mode":4},{"attributes":{"NORMAL":53,"POSITION":13,"TEXCOORD_0":93},"indices":133,"mode":4},{"attributes":{"NORMAL":54,"POSITION":14,"TEXCOORD_0":94},"indices":134,"mode":4},{"attributes":{"NORMAL":55,"POSITION":15,"TEXCOORD_0":95},"indices":135,"mode":4},{"attributes":{"NORMAL":56,"POSITION":16,"TEXCOORD_0":96},"indices":136,"mode":4},{"attributes":{"NORMAL":57,"POSITION":17,"TEXCOORD_0":97},"indices":137,"mode":4},{"attributes":{"NORMAL":58,"POSITION":18,"TEXCOORD_0":98},"indices":138,"mode":4},{"attributes":{"NORMAL":59,"POSITION":19,"TEXCOORD_0":99},"indices":139,"mode":4},{"attributes":{"NORMAL":60,"POSITION":20,"TEXCOORD_0":100},"indices":140,"mode":4},{"attributes":{"NORMAL":61,"POSITION":21,"TEXCOORD_0":101},"indices":141,"mode":4},{"attributes":{"NORMAL":62,"POSITION":22,"TEXCOORD_0":102},"indices":142,"mode":4},{"attributes":{"NORMAL":63,"POSITION":23,"TEXCOORD_0":103},"indices":143,"mode":4},{"attributes":{"NORMAL":64,"POSITION":24,"TEXCOORD_0":104},"indices":144,"mode":4},{"attributes":{"NORMAL":65,"POSITION":25,"TEXCOORD_0":105},"indices":145,"mode":4},{"attributes":{"NORMAL":66,"POSITION":26,"TEXCOORD_0":106},"indices":146,"mode":4},{"attributes":{"NORMAL":67,"POSITION":27,"TEXCOORD_0":107},"indices":147,"mode":4},{"attributes":{"NORMAL":68,"POSITION":28,"TEXCOORD_0":108},"indices":148,"mode":4},{"attributes":{"NORMAL":69,"POSITION":29,"TEXCOORD_0":109},"indices":149,"mode":4},{"attributes":{"NORMAL":70,"POSITION":30,"TEXCOORD_0":110},"indices":150,"mode":4},{"attributes":{"NORMAL":71,"POSITION":31,"TEXCOORD_0":111},"indices":151,"mode":4},{"attributes":{"NORMAL":72,"POSITION":32,"TEXCOORD_0":112},"indices":152,"mode":4},{"attributes":{"NORMAL":73,"POSITION":33,"TEXCOORD_0":113},"indices":153,"mode":4},{"attributes":{"NORMAL":74,"POSITION":34,"TEXCOORD_0":114},"indices":154,"mode":4},{"attributes":{"NORMAL":75,"POSITION":35,"TEXCOORD_0":115},"indices":155,"mode":4},{"attributes":{"NORMAL":76,"POSITION":36,"TEXCOORD_0":116},"indices":156,"mode":4},{"attributes":{"NORMAL":77,"POSITION":37,"TEXCOORD_0":117},"indices":157,"mode":4},{"attributes":{"NORMAL":78,"POSITION":38,"TEXCOORD_0":118},"indices":158,"mode":4},{"attributes":{"NORMAL":79,"POSITION":39,"TEXCOORD_0":119},"indices":159,"mode":4}]}],"nodes":[{"mesh":0,"name":"SOLID"}],"scene":0,"scenes":[{"nodes":[0]}]}